<?xml version="1.0" standalone="no"?>
<!DOCTYPE svg PUBLIC "-//W3C//DTD SVG 20010904//EN"
 "http://www.w3.org/TR/2001/REC-SVG-20010904/DTD/svg10.dtd">
<svg version="1.0" xmlns="http://www.w3.org/2000/svg"
 width="700.000000pt" height="700.000000pt" viewBox="0 0 700.000000 700.000000"
 preserveAspectRatio="xMidYMid meet">
<metadata>
Created by potrace 1.11, written by Peter Selinger 2001-2013
</metadata>
<g transform="translate(0.000000,700.000000) scale(0.100000,-0.100000)"
fill="#000000" stroke="none">
<path d="M3629 6996 c-2 -2 -40 -6 -84 -10 -82 -6 -108 -10 -205 -27 -78 -13
-90 -16 -135 -27 -22 -6 -51 -13 -65 -16 -14 -3 -41 -10 -60 -16 -19 -6 -42
-13 -50 -14 -47 -11 -251 -87 -307 -114 -253 -124 -280 -139 -423 -235 -246
-166 -465 -371 -639 -602 -17 -22 -36 -46 -42 -53 -27 -32 -151 -236 -197
-323 -141 -270 -244 -591 -278 -869 -2 -19 -6 -51 -9 -70 -11 -78 -16 -218
-17 -473 0 -257 -1 -270 -22 -310 -21 -38 -51 -95 -214 -407 -123 -236 -176
-338 -202 -385 -121 -224 -150 -294 -157 -376 -13 -154 80 -267 243 -296 27
-5 117 -9 200 -9 l152 1 0 -525 c1 -579 2 -595 63 -719 22 -46 56 -89 108
-141 150 -149 310 -192 536 -146 11 2 43 7 70 10 28 4 75 11 105 16 30 5 75
12 100 15 25 4 86 13 135 20 50 8 108 17 130 20 22 2 50 7 63 9 16 4 22 0 22
-12 1 -9 1 -186 2 -392 1 -206 6 -391 11 -410 11 -44 51 -86 94 -101 36 -12
79 -8 208 15 44 8 98 17 120 21 22 3 47 7 55 10 14 4 233 43 275 49 11 2 34 6
50 9 17 4 46 9 65 12 48 8 210 36 450 79 74 14 151 27 170 30 19 3 71 12 115
20 44 9 91 17 105 19 35 6 114 21 120 22 3 1 28 5 55 10 28 4 59 9 70 11 11 2
34 6 50 9 17 3 53 10 80 15 28 5 64 12 80 14 30 5 65 11 345 61 80 14 159 28
175 31 17 2 37 7 45 9 8 2 33 6 55 10 196 27 271 55 319 118 51 66 49 38 51
932 l1 840 85 85 c46 47 107 112 134 145 28 33 58 69 68 80 97 108 286 427
368 620 49 116 128 357 143 438 10 51 36 194 41 222 3 17 8 59 11 95 3 36 7
83 10 105 9 94 3 363 -11 473 -3 23 -8 63 -11 90 -3 26 -7 54 -9 62 -3 8 -7
33 -11 55 -11 76 -72 300 -109 400 -138 382 -342 702 -630 991 -337 338 -773
588 -1220 700 -16 4 -34 8 -40 10 -41 11 -190 38 -300 54 -72 11 -498 24 -506
16z m347 -1207 c22 -25 21 -56 -11 -209 -7 -36 -16 -85 -20 -110 -4 -24 -8
-47 -10 -50 -2 -3 -6 -23 -9 -45 -4 -22 -13 -74 -21 -115 -61 -311 -98 -511
-101 -546 l-5 -41 283 0 c199 0 291 -4 306 -12 49 -26 45 -33 -372 -751 -59
-102 -112 -192 -116 -200 -15 -25 -261 -452 -282 -490 -40 -71 -73 -120 -85
-124 -23 -9 -71 15 -75 37 -2 12 6 76 18 142 13 66 26 138 29 160 3 22 10 56
15 75 5 19 11 49 13 65 4 24 69 366 92 485 16 83 25 136 25 151 0 16 -20 18
-286 18 -176 1 -293 5 -305 11 -22 12 -25 53 -6 90 23 44 42 76 342 595 114
198 251 434 303 525 150 262 194 334 209 347 20 16 51 12 69 -8z"/>
</g>
</svg>
